P3
80 80
255
9 1 0  9 1 0  9 1 0  9 1 0  9 1 0  9 1 0
9 1 0  9 1 0  9 1 0  9 1 0  9 1 0  9 1 0
9 1 0  9 1 0  9 1 0  9 1 0  9 1 0  9 1 0
9 1 0  9 1 0  9 1 0  9 1 0  9 1 0  9 1 0
9 1 0  9 1 0  9 1 0  9 1 0  9 1 0  9 1 0
9 1 0  9 1 0  9 1 0  9 1 0  9 1 0  9 1 0
9 1 0  9 1 0  9 1 0  9 1 0  9 1 0  9 1 0
9 1 0  9 1 0  9 1 0  9 1 0  9 1 0  9 1 0
9 1 0  9 1 0  9 1 0  9 1 0  9 1 0  9 1 0
9 1 0  9 1 0  9 1 0  9 1 0  9 1 0  9 1 0
9 1 0  9 1 0  9 1 0  9 1 0  9 1 0  9 1 0
9 1 0  9 1 0  9 1 0  9 1 0  9 1 0  9 1 0
9 1 0  9 1 0  9 1 0  9 1 0  9 1 0  9 1 0
9 1 0  9 1 0
9 1 0  9 1 0  9 1 0  9 1 0  9 1 0  9 1 0
9 1 0  9 1 0  9 1 0  9 1 0  9 1 0  9 1 0
9 1 0  9 1 0  9 1 0  9 1 0  9 1 0  9 1 0
9 1 0  9 1 0  9 1 0  9 1 0  9 1 0  9 1 0
9 1 0  9 1 0  9 1 0  9 1 0  9 1 0  9 1 0
9 1 0  9 1 0  9 1 0  9 1 0  9 1 0  9 1 0
9 1 0  9 1 0  9 1 0  9 1 0  9 1 0  9 1 0
9 1 0  9 1 0  9 1 0  9 1 0  9 1 0  9 1 0
9 1 0  9 1 0  9 1 0  9 1 0  9 1 0  9 1 0
9 1 0  9 1 0  9 1 0  9 1 0  9 1 0  9 1 0
9 1 0  9 1 0  9 1 0  9 1 0  9 1 0  9 1 0
9 1 0  9 1 0  9 1 0  9 1 0  9 1 0  9 1 0
9 1 0  9 1 0  9 1 0  9 1 0  9 1 0  9 1 0
9 1 0  9 1 0
9 1 0  9 1 0  9 1 0  9 1 0  9 1 0  9 1 0
9 1 0  9 1 0  9 1 0  9 1 0  9 1 0  9 1 0
9 1 0  9 1 0  9 1 0  9 1 0  9 1 0  9 1 0
9 1 0  9 1 0  9 1 0  9 1 0  9 1 0  9 1 0
9 1 0  9 1 0  9 1 0  9 1 0  9 1 0  9 1 0
9 1 0  9 1 0  9 1 0  9 1 0  9 1 0  9 1 0
9 1 0  9 1 0  9 1 0  9 1 0  9 1 0  9 1 0
9 1 0  9 1 0  9 1 0  9 1 0  9 1 0  9 1 0
9 1 0  9 1 0  9 1 0  9 1 0  9 1 0  9 1 0
9 1 0  9 1 0  9 1 0  9 1 0  9 1 0  9 1 0
9 1 0  9 1 0  9 1 0  9 1 0  9 1 0  9 1 0
9 1 0  9 1 0  9 1 0  9 1 0  9 1 0  9 1 0
9 1 0  9 1 0  9 1 0  9 1 0  9 1 0  9 1 0
9 1 0  9 1 0
9 1 0  9 1 0  9 1 0  9 1 0  9 1 0  9 1 0
9 1 0  9 1 0  9 1 0  9 1 0  9 1 0  9 1 0
9 1 0  9 1 0  9 1 0  9 1 0  9 1 0  9 1 0
9 1 0  9 1 0  9 1 0  9 1 0  9 1 0  9 1 0
9 1 0  9 1 0  9 1 0  9 1 0  9 1 0  9 1 0
9 1 0  9 1 0  9 1 0  9 1 0  9 1 0  9 1 0
9 1 0  9 1 0  9 1 0  9 1 0  9 1 0  9 1 0
9 1 0  9 1 0  9 1 0  9 1 0  9 1 0  9 1 0
9 1 0  9 1 0  9 1 0  9 1 0  9 1 0  9 1 0
9 1 0  9 1 0  9 1 0  9 1 0  9 1 0  9 1 0
9 1 0  9 1 0  9 1 0  9 1 0  9 1 0  9 1 0
9 1 0  9 1 0  9 1 0  9 1 0  9 1 0  9 1 0
9 1 0  9 1 0  9 1 0  9 1 0  9 1 0  9 1 0
9 1 0  9 1 0
9 1 0  9 1 0  9 1 0  9 1 0  9 1 0  9 1 0
9 1 0  9 1 0  9 1 0  9 1 0  9 1 0  9 1 0
9 1 0  9 1 0  9 1 0  9 1 0  9 1 0  9 1 0
9 1 0  9 1 0  9 1 0  9 1 0  9 1 0  9 1 0
9 1 0  9 1 0  9 1 0  9 1 0  9 1 0  9 1 0
9 1 0  9 1 0  9 1 0  9 1 0  9 1 0  9 1 0
9 1 0  9 1 0  9 1 0  9 1 0  9 1 0  9 1 0
9 1 0  9 1 0  9 1 0  9 1 0  9 1 0  9 1 0
9 1 0  9 1 0  9 1 0  9 1 0  9 1 0  9 1 0
9 1 0  9 1 0  9 1 0  9 1 0  9 1 0  9 1 0
9 1 0  9 1 0  9 1 0  9 1 0  9 1 0  9 1 0
9 1 0  9 1 0  9 1 0  9 1 0  9 1 0  9 1 0
9 1 0  9 1 0  9 1 0  9 1 0  9 1 0  9 1 0
9 1 0  9 1 0
9 1 0  9 1 0  9 1 0  9 1 0  9 1 0  9 1 0
9 1 0  9 1 0  9 1 0  9 1 0  9 1 0  9 1 0
9 1 0  9 1 0  9 1 0  9 1 0  9 1 0  9 1 0
9 1 0  9 1 0  9 1 0  9 1 0  9 1 0  9 1 0
9 1 0  9 1 0  9 1 0  9 1 0  9 1 0  9 1 0
9 1 0  9 1 0  9 1 0  9 1 0  9 1 0  9 1 0
9 1 0  9 1 0  9 1 0  9 1 0  9 1 0  9 1 0
9 1 0  9 1 0  9 1 0  9 1 0  9 1 0  9 1 0
9 1 0  9 1 0  9 1 0  9 1 0  9 1 0  9 1 0
9 1 0  9 1 0  9 1 0  9 1 0  9 1 0  9 1 0
9 1 0  9 1 0  9 1 0  9 1 0  9 1 0  9 1 0
9 1 0  9 1 0  9 1 0  9 1 0  9 1 0  9 1 0
9 1 0  9 1 0  9 1 0  9 1 0  9 1 0  9 1 0
9 1 0  9 1 0
9 1 0  9 1 0  9 1 0  9 1 0  9 1 0  9 1 0
9 1 0  9 1 0  9 1 0  9 1 0  9 1 0  9 1 0
9 1 0  9 1 0  9 1 0  9 1 0  9 1 0  9 1 0
9 1 0  9 1 0  9 1 0  9 1 0  9 1 0  9 1 0
9 1 0  9 1 0  9 1 0  9 1 0  9 1 0  9 1 0
9 1 0  9 1 0  9 1 0  9 1 0  9 1 0  9 1 0
9 1 0  9 1 0  9 1 0  9 1 0  9 1 0  9 1 0
9 1 0  9 1 0  9 1 0  9 1 0  9 1 0  9 1 0
9 1 0  9 1 0  9 1 0  9 1 0  9 1 0  9 1 0
9 1 0  9 1 0  9 1 0  9 1 0  9 1 0  9 1 0
9 1 0  9 1 0  9 1 0  9 1 0  9 1 0  9 1 0
9 1 0  9 1 0  9 1 0  9 1 0  9 1 0  9 1 0
9 1 0  9 1 0  9 1 0  9 1 0  9 1 0  9 1 0
9 1 0  9 1 0
9 1 0  9 1 0  9 1 0  9 1 0  9 1 0  9 1 0
9 1 0  9 1 0  9 1 0  9 1 0  9 1 0  9 1 0
9 1 0  9 1 0  9 1 0  9 1 0  9 1 0  9 1 0
9 1 0  9 1 0  9 1 0  9 1 0  9 1 0  9 1 0
9 1 0  9 1 0  9 1 0  9 1 0  9 1 0  9 1 0
9 1 0  9 1 0  9 1 0  9 1 0  9 1 0  9 1 0
9 1 0  9 1 0  9 1 0  9 1 0  9 1 0  9 1 0
9 1 0  9 1 0  9 1 0  9 1 0  9 1 0  9 1 0
9 1 0  9 1 0  9 1 0  9 1 0  9 1 0  79 124 64
9 1 0  9 1 0  9 1 0  9 1 0  9 1 0  9 1 0
9 1 0  9 1 0  9 1 0  9 1 0  9 1 0  9 1 0
9 1 0  9 1 0  9 1 0  9 1 0  9 1 0  9 1 0
9 1 0  9 1 0  9 1 0  9 1 0  9 1 0  9 1 0
9 1 0  9 1 0
9 1 0  9 1 0  9 1 0  9 1 0  9 1 0  9 1 0
9 1 0  9 1 0  9 1 0  9 1 0  9 1 0  9 1 0
9 1 0  9 1 0  9 1 0  9 1 0  9 1 0  9 1 0
9 1 0  9 1 0  9 1 0  9 1 0  9 1 0  9 1 0
9 1 0  9 1 0  9 1 0  9 1 0  9 1 0  9 1 0
9 1 0  9 1 0  9 1 0  9 1 0  9 1 0  9 1 0
9 1 0  9 1 0  9 1 0  9 1 0  9 1 0  9 1 0
9 1 0  9 1 0  9 1 0  9 1 0  9 1 0  9 1 0
9 1 0  9 1 0  99 144 58  96 172 58  96 172 58  79 124 64
9 1 0  9 1 0  9 1 0  9 1 0  9 1 0  9 1 0
9 1 0  9 1 0  9 1 0  9 1 0  9 1 0  9 1 0
9 1 0  9 1 0  9 1 0  9 1 0  9 1 0  9 1 0
9 1 0  9 1 0  9 1 0  9 1 0  9 1 0  9 1 0
9 1 0  9 1 0
9 1 0  9 1 0  9 1 0  9 1 0  9 1 0  9 1 0
9 1 0  9 1 0  9 1 0  9 1 0  9 1 0  9 1 0
9 1 0  9 1 0  9 1 0  9 1 0  9 1 0  9 1 0
9 1 0  9 1 0  9 1 0  9 1 0  9 1 0  9 1 0
9 1 0  9 1 0  9 1 0  9 1 0  9 1 0  9 1 0
9 1 0  9 1 0  9 1 0  9 1 0  9 1 0  9 1 0
9 1 0  9 1 0  9 1 0  9 1 0  9 1 0  9 1 0
9 1 0  9 1 0  9 1 0  9 1 0  9 1 0  9 1 0
81 142 63  95 172 50  94 178 46  96 172 58  79 128 58  9 1 0
9 1 0  9 1 0  9 1 0  9 1 0  9 1 0  9 1 0
9 1 0  9 1 0  9 1 0  9 1 0  9 1 0  9 1 0
9 1 0  9 1 0  9 1 0  9 1 0  9 1 0  9 1 0
9 1 0  9 1 0  9 1 0  9 1 0  9 1 0  9 1 0
9 1 0  9 1 0
9 1 0  9 1 0  9 1 0  9 1 0  9 1 0  9 1 0
9 1 0  9 1 0  9 1 0  9 1 0  9 1 0  9 1 0
9 1 0  9 1 0  9 1 0  9 1 0  9 1 0  9 1 0
9 1 0  9 1 0  9 1 0  9 1 0  9 1 0  9 1 0
9 1 0  9 1 0  9 1 0  9 1 0  9 1 0  9 1 0
9 1 0  9 1 0  9 1 0  9 1 0  9 1 0  9 1 0
9 1 0  9 1 0  9 1 0  9 1 0  9 1 0  9 1 0
9 1 0  9 1 0  9 1 0  9 1 0  9 1 0  99 144 58
104 178 56  94 178 46  94 178 46  79 128 58  9 1 0  9 1 0
9 1 0  9 1 0  9 1 0  9 1 0  9 1 0  9 1 0
9 1 0  9 1 0  9 1 0  9 1 0  9 1 0  9 1 0
9 1 0  9 1 0  9 1 0  9 1 0  9 1 0  9 1 0
9 1 0  9 1 0  9 1 0  9 1 0  9 1 0  9 1 0
9 1 0  9 1 0
9 1 0  9 1 0  9 1 0  9 1 0  9 1 0  9 1 0
9 1 0  9 1 0  9 1 0  9 1 0  9 1 0  9 1 0
9 1 0  9 1 0  9 1 0  9 1 0  9 1 0  9 1 0
9 1 0  9 1 0  9 1 0  9 1 0  9 1 0  9 1 0
9 1 0  9 1 0  9 1 0  9 1 0  9 1 0  9 1 0
9 1 0  9 1 0  9 1 0  9 1 0  9 1 0  9 1 0
9 1 0  9 1 0  9 1 0  9 1 0  9 1 0  9 1 0
9 1 0  9 1 0  9 1 0  67 117 50  90 167 61  94 178 46
94 178 46  94 178 46  96 172 58  9 1 0  9 1 0  9 1 0
9 1 0  9 1 0  9 1 0  9 1 0  9 1 0  9 1 0
9 1 0  9 1 0  9 1 0  9 1 0  9 1 0  9 1 0
9 1 0  9 1 0  9 1 0  9 1 0  9 1 0  9 1 0
9 1 0  9 1 0  9 1 0  9 1 0  9 1 0  9 1 0
9 1 0  9 1 0
9 1 0  9 1 0  9 1 0  9 1 0  9 1 0  9 1 0
9 1 0  9 1 0  9 1 0  9 1 0  9 1 0  9 1 0
9 1 0  9 1 0  9 1 0  9 1 0  9 1 0  9 1 0
9 1 0  9 1 0  9 1 0  9 1 0  9 1 0  9 1 0
9 1 0  9 1 0  9 1 0  9 1 0  9 1 0  9 1 0
9 1 0  9 1 0  9 1 0  9 1 0  9 1 0  9 1 0
9 1 0  9 1 0  9 1 0  9 1 0  9 1 0  9 1 0
9 1 0  95 152 60  96 172 58  91 177 55  91 177 55  84 180 46
94 178 46  95 172 50  103 166 66  9 1 0  9 1 0  9 1 0
9 1 0  9 1 0  9 1 0  9 1 0  9 1 0  9 1 0
9 1 0  9 1 0  9 1 0  9 1 0  9 1 0  9 1 0
9 1 0  9 1 0  9 1 0  9 1 0  9 1 0  9 1 0
9 1 0  9 1 0  9 1 0  9 1 0  9 1 0  9 1 0
9 1 0  9 1 0
9 1 0  9 1 0  9 1 0  9 1 0  9 1 0  9 1 0
9 1 0  9 1 0  9 1 0  9 1 0  9 1 0  9 1 0
9 1 0  9 1 0  9 1 0  9 1 0  9 1 0  9 1 0
9 1 0  9 1 0  9 1 0  9 1 0  9 1 0  9 1 0
9 1 0  9 1 0  9 1 0  9 1 0  9 1 0  9 1 0
9 1 0  9 1 0  9 1 0  9 1 0  9 1 0  9 1 0
9 1 0  9 1 0  9 1 0  9 1 0  9 1 0  95 152 60
90 167 61  91 177 55  94 178 46  94 178 46  84 171 49  95 172 50
84 171 49  83 163 48  81 142 63  9 1 0  9 1 0  9 1 0
9 1 0  9 1 0  9 1 0  9 1 0  9 1 0  9 1 0
9 1 0  9 1 0  9 1 0  9 1 0  9 1 0  9 1 0
9 1 0  9 1 0  9 1 0  9 1 0  9 1 0  9 1 0
9 1 0  9 1 0  9 1 0  9 1 0  9 1 0  9 1 0
9 1 0  9 1 0
9 1 0  9 1 0  9 1 0  9 1 0  9 1 0  9 1 0
9 1 0  9 1 0  9 1 0  9 1 0  9 1 0  9 1 0
9 1 0  9 1 0  9 1 0  9 1 0  9 1 0  9 1 0
9 1 0  9 1 0  9 1 0  9 1 0  9 1 0  9 1 0
9 1 0  9 1 0  9 1 0  9 1 0  9 1 0  9 1 0
9 1 0  9 1 0  9 1 0  9 1 0  9 1 0  9 1 0
9 1 0  9 1 0  9 1 0  81 142 63  96 172 58  94 178 46
94 178 46  94 178 46  84 171 49  83 163 48  90 167 61  83 163 48
83 148 51  68 133 52  64 120 48  68 106 50  9 1 0  9 1 0
9 1 0  9 1 0  9 1 0  9 1 0  9 1 0  9 1 0
9 1 0  9 1 0  9 1 0  9 1 0  9 1 0  9 1 0
9 1 0  9 1 0  9 1 0  9 1 0  9 1 0  9 1 0
9 1 0  9 1 0  9 1 0  9 1 0  9 1 0  9 1 0
9 1 0  9 1 0
9 1 0  9 1 0  9 1 0  9 1 0  9 1 0  9 1 0
9 1 0  9 1 0  9 1 0  9 1 0  9 1 0  9 1 0
9 1 0  9 1 0  9 1 0  9 1 0  9 1 0  9 1 0
9 1 0  9 1 0  9 1 0  9 1 0  9 1 0  9 1 0
9 1 0  9 1 0  9 1 0  9 1 0  9 1 0  9 1 0
9 1 0  9 1 0  9 1 0  9 1 0  9 1 0  9 1 0
9 1 0  68 106 50  90 167 61  91 177 55  94 178 46  94 178 46
84 171 49  83 163 48  83 163 48  80 155 49  80 155 49  73 148 50
74 142 53  81 142 63  79 128 58  9 1 0  9 1 0  9 1 0
9 1 0  9 1 0  9 1 0  9 1 0  9 1 0  9 1 0
9 1 0  9 1 0  9 1 0  9 1 0  9 1 0  9 1 0
9 1 0  9 1 0  9 1 0  9 1 0  9 1 0  9 1 0
9 1 0  9 1 0  9 1 0  9 1 0  9 1 0  9 1 0
9 1 0  9 1 0
9 1 0  9 1 0  9 1 0  9 1 0  9 1 0  9 1 0
9 1 0  9 1 0  9 1 0  9 1 0  9 1 0  9 1 0
9 1 0  9 1 0  9 1 0  9 1 0  9 1 0  9 1 0
9 1 0  9 1 0  9 1 0  9 1 0  9 1 0  9 1 0
9 1 0  9 1 0  9 1 0  9 1 0  9 1 0  9 1 0
9 1 0  9 1 0  9 1 0  9 1 0  9 1 0  9 1 0
68 106 50  103 166 66  90 167 61  84 171 49  84 171 49  83 163 48
83 163 48  80 155 49  80 155 49  83 148 51  74 142 53  74 142 53
68 133 52  79 128 58  55 85 43  9 1 0  9 1 0  9 1 0
9 1 0  9 1 0  9 1 0  9 1 0  9 1 0  9 1 0
9 1 0  9 1 0  9 1 0  9 1 0  9 1 0  9 1 0
9 1 0  9 1 0  9 1 0  9 1 0  9 1 0  9 1 0
9 1 0  9 1 0  9 1 0  9 1 0  9 1 0  9 1 0
9 1 0  9 1 0
9 1 0  9 1 0  9 1 0  9 1 0  9 1 0  9 1 0
9 1 0  9 1 0  9 1 0  9 1 0  9 1 0  9 1 0
9 1 0  9 1 0  9 1 0  9 1 0  9 1 0  9 1 0
9 1 0  9 1 0  9 1 0  9 1 0  9 1 0  9 1 0
9 1 0  9 1 0  9 1 0  9 1 0  9 1 0  9 1 0
9 1 0  9 1 0  9 1 0  9 1 0  9 1 0  9 1 0
79 128 58  73 148 50  73 148 50  83 163 48  83 163 48  80 155 49
83 148 51  74 142 53  74 142 53  68 133 52  67 127 54  64 120 48
64 120 48  48 95 45  9 1 0  9 1 0  9 1 0  9 1 0
9 1 0  9 1 0  9 1 0  9 1 0  9 1 0  9 1 0
9 1 0  9 1 0  9 1 0  9 1 0  9 1 0  9 1 0
9 1 0  9 1 0  9 1 0  9 1 0  9 1 0  9 1 0
9 1 0  9 1 0  9 1 0  9 1 0  9 1 0  9 1 0
9 1 0  9 1 0
9 1 0  9 1 0  9 1 0  9 1 0  9 1 0  9 1 0
9 1 0  9 1 0  9 1 0  9 1 0  9 1 0  9 1 0
9 1 0  9 1 0  9 1 0  9 1 0  9 1 0  9 1 0
9 1 0  9 1 0  9 1 0  9 1 0  9 1 0  9 1 0
9 1 0  9 1 0  9 1 0  9 1 0  9 1 0  9 1 0
9 1 0  9 1 0  9 1 0  9 1 0  79 128 58  103 166 66
91 177 55  95 172 50  95 172 50  83 163 48  80 155 49  73 148 50
74 142 53  68 133 52  67 127 54  64 120 48  67 117 50  58 108 50
57 104 53  62 96 53  9 1 0  9 1 0  9 1 0  9 1 0
9 1 0  9 1 0  9 1 0  9 1 0  9 1 0  9 1 0
9 1 0  9 1 0  9 1 0  9 1 0  9 1 0  9 1 0
9 1 0  9 1 0  9 1 0  9 1 0  9 1 0  9 1 0
9 1 0  9 1 0  9 1 0  9 1 0  9 1 0  9 1 0
9 1 0  9 1 0
9 1 0  9 1 0  9 1 0  9 1 0  9 1 0  9 1 0
9 1 0  9 1 0  9 1 0  9 1 0  9 1 0  9 1 0
9 1 0  9 1 0  9 1 0  9 1 0  9 1 0  9 1 0
9 1 0  9 1 0  9 1 0  9 1 0  9 1 0  9 1 0
9 1 0  9 1 0  9 1 0  9 1 0  9 1 0  9 1 0
9 1 0  9 1 0  95 152 60  96 172 58  95 172 50  94 178 46
84 171 49  83 163 48  83 163 48  80 155 49  83 148 51  81 142 63
67 127 54  64 120 48  67 117 50  68 106 50  48 95 45  59 102 60
62 96 53  43 78 44  9 1 0  9 1 0  9 1 0  9 1 0
9 1 0  9 1 0  9 1 0  9 1 0  9 1 0  9 1 0
9 1 0  9 1 0  9 1 0  9 1 0  9 1 0  9 1 0
9 1 0  9 1 0  9 1 0  9 1 0  9 1 0  9 1 0
9 1 0  9 1 0  9 1 0  9 1 0  9 1 0  9 1 0
9 1 0  9 1 0
9 1 0  9 1 0  9 1 0  9 1 0  9 1 0  9 1 0
9 1 0  9 1 0  9 1 0  9 1 0  9 1 0  9 1 0
9 1 0  9 1 0  9 1 0  9 1 0  9 1 0  9 1 0
9 1 0  9 1 0  9 1 0  9 1 0  9 1 0  9 1 0
9 1 0  9 1 0  9 1 0  9 1 0  9 1 0  9 1 0
81 142 63  96 172 58  94 178 46  84 180 46  84 180 46  94 178 46
95 172 50  80 155 49  80 155 49  74 142 53  68 133 52  67 127 54
58 118 51  67 117 50  48 95 45  104 134 101  206 221 208  250 253 250
68 93 63  49 73 45  9 1 0  9 1 0  9 1 0  9 1 0
9 1 0  9 1 0  9 1 0  9 1 0  9 1 0  9 1 0
9 1 0  9 1 0  9 1 0  9 1 0  9 1 0  9 1 0
9 1 0  9 1 0  9 1 0  9 1 0  9 1 0  9 1 0
9 1 0  9 1 0  9 1 0  9 1 0  9 1 0  9 1 0
9 1 0  9 1 0
9 1 0  9 1 0  9 1 0  9 1 0  9 1 0  9 1 0
9 1 0  9 1 0  9 1 0  9 1 0  9 1 0  9 1 0
9 1 0  9 1 0  9 1 0  9 1 0  9 1 0  9 1 0
9 1 0  9 1 0  9 1 0  9 1 0  9 1 0  9 1 0
9 1 0  9 1 0  9 1 0  9 1 0  9 1 0  103 166 66
94 178 46  94 178 46  90 181 39  90 181 39  84 180 46  84 171 49
90 167 61  73 148 50  73 148 50  68 133 52  67 127 54  58 118 51
58 108 50  59 102 60  177 199 179  120 135 121  147 154 144  250 253 250
43 60 40  35 60 36  35 51 30  9 1 0  9 1 0  9 1 0
9 1 0  9 1 0  9 1 0  9 1 0  9 1 0  9 1 0
9 1 0  9 1 0  9 1 0  9 1 0  9 1 0  9 1 0
9 1 0  9 1 0  9 1 0  9 1 0  9 1 0  9 1 0
9 1 0  9 1 0  9 1 0  9 1 0  9 1 0  9 1 0
9 1 0  9 1 0
9 1 0  9 1 0  9 1 0  9 1 0  9 1 0  9 1 0
9 1 0  9 1 0  9 1 0  9 1 0  9 1 0  9 1 0
9 1 0  9 1 0  9 1 0  9 1 0  9 1 0  9 1 0
9 1 0  9 1 0  9 1 0  9 1 0  9 1 0  9 1 0
9 1 0  9 1 0  9 1 0  9 1 0  112 171 57  94 178 46
94 178 46  100 183 40  90 181 39  94 178 46  96 172 58  83 163 48
80 155 49  73 148 50  68 133 52  68 133 52  58 118 51  57 104 53
104 134 101  250 253 250  147 154 144  28 60 32  175 181 171  233 235 232
34 48 35  35 51 30  35 51 30  9 1 0  9 1 0  9 1 0
9 1 0  9 1 0  9 1 0  9 1 0  9 1 0  9 1 0
9 1 0  9 1 0  9 1 0  9 1 0  9 1 0  9 1 0
9 1 0  9 1 0  9 1 0  9 1 0  9 1 0  9 1 0
9 1 0  9 1 0  9 1 0  9 1 0  9 1 0  9 1 0
9 1 0  9 1 0
9 1 0  9 1 0  9 1 0  9 1 0  9 1 0  9 1 0
9 1 0  9 1 0  9 1 0  9 1 0  9 1 0  9 1 0
9 1 0  9 1 0  9 1 0  9 1 0  9 1 0  9 1 0
9 1 0  9 1 0  9 1 0  9 1 0  9 1 0  9 1 0
9 1 0  9 1 0  9 1 0  112 171 57  94 178 46  94 178 46
94 178 46  100 183 40  84 180 46  94 178 46  83 163 48  80 155 49
73 148 50  68 133 52  67 127 54  64 120 48  57 104 53  177 199 179
250 253 250  250 253 250  63 81 61  43 60 40  233 235 232  250 253 250
34 48 35  27 41 27  23 35 23  9 1 0  9 1 0  9 1 0
9 1 0  9 1 0  9 1 0  9 1 0  9 1 0  9 1 0
9 1 0  9 1 0  9 1 0  9 1 0  9 1 0  9 1 0
9 1 0  9 1 0  9 1 0  9 1 0  9 1 0  9 1 0
9 1 0  9 1 0  9 1 0  9 1 0  9 1 0  9 1 0
9 1 0  9 1 0
9 1 0  9 1 0  9 1 0  9 1 0  9 1 0  9 1 0
9 1 0  9 1 0  9 1 0  9 1 0  9 1 0  9 1 0
9 1 0  9 1 0  9 1 0  9 1 0  9 1 0  9 1 0
9 1 0  9 1 0  9 1 0  9 1 0  9 1 0  9 1 0
9 1 0  9 1 0  112 171 57  94 178 46  100 183 40  100 183 40
84 180 46  84 180 46  94 178 46  84 171 49  83 163 48  80 155 49
74 142 53  68 133 52  67 117 50  122 150 120  250 253 250  250 253 250
250 253 250  212 216 210  19 45 23  120 135 121  250 253 250  250 253 250
62 66 60  23 35 23  15 27 16  9 1 0  9 1 0  9 1 0
9 1 0  9 1 0  9 1 0  9 1 0  9 1 0  9 1 0
9 1 0  9 1 0  9 1 0  9 1 0  9 1 0  9 1 0
9 1 0  9 1 0  9 1 0  9 1 0  9 1 0  9 1 0
9 1 0  9 1 0  9 1 0  9 1 0  9 1 0  9 1 0
9 1 0  9 1 0
9 1 0  9 1 0  9 1 0  9 1 0  9 1 0  9 1 0
9 1 0  9 1 0  9 1 0  9 1 0  9 1 0  9 1 0
9 1 0  9 1 0  9 1 0  9 1 0  9 1 0  9 1 0
9 1 0  9 1 0  9 1 0  9 1 0  9 1 0  9 1 0
9 1 0  110 138 49  107 179 49  94 178 46  94 178 46  84 180 46
94 178 46  107 179 49  84 171 49  84 171 49  80 155 49  83 148 51
74 142 53  67 127 54  79 124 64  122 150 120  87 110 89  87 110 89
120 135 121  87 110 89  63 81 61  250 253 250  250 253 250  250 253 250
106 108 105  15 27 16  19 25 20  9 1 0  9 1 0  9 1 0
9 1 0  9 1 0  9 1 0  9 1 0  9 1 0  9 1 0
9 1 0  9 1 0  9 1 0  9 1 0  9 1 0  9 1 0
9 1 0  9 1 0  9 1 0  9 1 0  9 1 0  9 1 0
9 1 0  9 1 0  9 1 0  9 1 0  9 1 0  9 1 0
9 1 0  9 1 0
9 1 0  9 1 0  9 1 0  9 1 0  9 1 0  9 1 0
9 1 0  9 1 0  9 1 0  9 1 0  9 1 0  9 1 0
9 1 0  9 1 0  9 1 0  9 1 0  9 1 0  9 1 0
9 1 0  9 1 0  9 1 0  9 1 0  9 1 0  9 1 0
9 1 0  112 171 57  94 178 46  100 183 40  100 183 40  96 172 58
60 137 33  96 172 58  84 171 49  83 163 48  80 155 49  74 142 53
68 133 52  67 117 50  58 108 50  48 95 45  55 85 43  43 78 44
49 73 45  35 51 30  34 48 35  62 66 60  212 216 210  250 253 250
157 161 155  4 8 5  4 8 5  9 1 0  9 1 0  9 1 0
9 1 0  9 1 0  9 1 0  9 1 0  9 1 0  9 1 0
9 1 0  9 1 0  9 1 0  9 1 0  9 1 0  9 1 0
9 1 0  9 1 0  9 1 0  9 1 0  9 1 0  9 1 0
9 1 0  9 1 0  9 1 0  9 1 0  9 1 0  9 1 0
9 1 0  9 1 0
9 1 0  9 1 0  9 1 0  9 1 0  9 1 0  9 1 0
9 1 0  9 1 0  9 1 0  9 1 0  9 1 0  9 1 0
9 1 0  9 1 0  9 1 0  9 1 0  9 1 0  9 1 0
9 1 0  9 1 0  9 1 0  9 1 0  9 1 0  9 1 0
122 136 50  95 172 50  84 180 46  91 177 55  60 137 33  80 155 49
107 179 49  94 178 46  84 171 49  83 163 48  83 148 51  83 136 49
68 133 52  58 108 50  57 104 53  62 96 53  43 78 44  43 78 44
28 60 32  35 51 30  27 41 27  23 35 23  33 34 21  196 198 195
212 216 210  9 1 0  4 8 5  9 1 0  9 1 0  9 1 0
9 1 0  9 1 0  9 1 0  9 1 0  9 1 0  9 1 0
9 1 0  9 1 0  9 1 0  9 1 0  9 1 0  9 1 0
9 1 0  9 1 0  9 1 0  9 1 0  9 1 0  9 1 0
9 1 0  9 1 0  9 1 0  9 1 0  9 1 0  9 1 0
9 1 0  9 1 0
9 1 0  9 1 0  9 1 0  9 1 0  9 1 0  9 1 0
9 1 0  9 1 0  9 1 0  9 1 0  9 1 0  9 1 0
9 1 0  9 1 0  9 1 0  9 1 0  9 1 0  9 1 0
9 1 0  9 1 0  9 1 0  9 1 0  9 1 0  9 1 0
118 158 51  95 172 50  80 155 49  65 130 31  91 177 55  94 178 46
94 178 46  94 178 46  83 163 48  83 148 51  96 130 51  115 119 65
135 122 82  33 34 21  15 27 16  27 41 27  43 60 40  35 60 36
43 60 40  34 48 35  27 41 27  23 35 23  19 25 20  19 25 20
196 198 195  4 8 5  9 1 0  9 1 0  9 1 0  9 1 0
9 1 0  9 1 0  9 1 0  9 1 0  9 1 0  9 1 0
9 1 0  9 1 0  9 1 0  9 1 0  9 1 0  9 1 0
9 1 0  9 1 0  9 1 0  9 1 0  9 1 0  9 1 0
9 1 0  9 1 0  9 1 0  9 1 0  9 1 0  9 1 0
9 1 0  9 1 0
9 1 0  9 1 0  9 1 0  9 1 0  9 1 0  9 1 0
9 1 0  9 1 0  9 1 0  9 1 0  9 1 0  9 1 0
9 1 0  9 1 0  9 1 0  9 1 0  9 1 0  9 1 0
9 1 0  9 1 0  9 1 0  9 1 0  9 1 0  9 1 0
99 144 58  60 137 33  95 172 50  94 178 46  84 180 46  100 183 40
94 178 46  95 172 50  96 130 51  146 143 93  233 201 149  233 201 149
160 138 108  4 8 5  4 8 5  9 1 0  20 5 3  170 138 110
210 170 130  109 90 66  23 35 23  25 34 15  15 27 16  4 8 5
62 66 60  4 8 5  9 1 0  9 1 0  9 1 0  9 1 0
9 1 0  9 1 0  9 1 0  9 1 0  9 1 0  9 1 0
9 1 0  9 1 0  9 1 0  9 1 0  9 1 0  9 1 0
9 1 0  9 1 0  9 1 0  9 1 0  9 1 0  9 1 0
9 1 0  9 1 0  9 1 0  9 1 0  9 1 0  9 1 0
9 1 0  9 1 0
9 1 0  9 1 0  9 1 0  9 1 0  9 1 0  9 1 0
9 1 0  9 1 0  9 1 0  9 1 0  9 1 0  9 1 0
9 1 0  9 1 0  9 1 0  9 1 0  9 1 0  9 1 0
9 1 0  9 1 0  9 1 0  9 1 0  9 1 0  88 71 30
103 166 66  84 180 46  100 183 40  94 178 46  84 180 46  94 178 46
102 159 56  116 132 72  219 185 142  237 196 139  237 196 139  233 201 149
61 45 28  9 1 0  33 26 16  109 90 66  219 185 142  230 191 141
237 196 139  219 185 142  61 45 28  33 34 21  23 35 23  19 25 20
4 8 5  4 8 5  23 3 8  9 1 0  9 1 0  9 1 0
9 1 0  9 1 0  9 1 0  9 1 0  9 1 0  9 1 0
9 1 0  9 1 0  9 1 0  9 1 0  9 1 0  9 1 0
9 1 0  9 1 0  9 1 0  9 1 0  9 1 0  9 1 0
9 1 0  9 1 0  9 1 0  9 1 0  9 1 0  9 1 0
9 1 0  9 1 0
9 1 0  9 1 0  9 1 0  9 1 0  9 1 0  9 1 0
9 1 0  9 1 0  9 1 0  9 1 0  9 1 0  9 1 0
9 1 0  9 1 0  9 1 0  9 1 0  160 104 78  176 139 103
206 156 123  224 168 130  9 1 0  9 1 0  9 1 0  102 159 56
94 178 46  84 180 46  84 180 46  100 183 40  107 179 49  98 142 49
146 143 93  233 201 149  237 196 139  237 196 139  243 201 144  219 185 142
51 31 22  178 154 124  170 138 110  238 198 150  237 196 139  237 196 139
230 191 141  233 187 141  109 90 66  23 35 23  23 35 23  19 25 20
15 27 16  19 25 20  32 9 6  9 1 0  9 1 0  9 1 0
9 1 0  9 1 0  9 1 0  9 1 0  9 1 0  9 1 0
9 1 0  9 1 0  9 1 0  9 1 0  9 1 0  9 1 0
9 1 0  9 1 0  9 1 0  9 1 0  9 1 0  9 1 0
9 1 0  9 1 0  9 1 0  9 1 0  9 1 0  9 1 0
9 1 0  9 1 0
9 1 0  9 1 0  9 1 0  9 1 0  9 1 0  9 1 0
9 1 0  9 1 0  9 1 0  9 1 0  9 1 0  9 1 0
9 1 0  9 1 0  9 1 0  9 1 0  9 1 0  204 170 114
172 143 97  132 104 67  176 139 103  172 157 112  95 152 60  94 178 46
90 181 39  90 181 39  94 178 46  95 172 50  96 130 51  50 44 25
85 62 45  191 153 116  238 198 150  243 201 144  243 201 144  230 191 141
233 201 149  240 205 144  243 201 144  237 196 139  237 196 139  230 191 141
210 170 130  170 138 110  121 86 72  33 34 21  27 41 27  23 35 23
23 35 23  19 25 20  40 18 11  9 1 0  9 1 0  9 1 0
9 1 0  9 1 0  9 1 0  9 1 0  9 1 0  206 156 123
206 156 123  9 1 0  9 1 0  9 1 0  9 1 0  9 1 0
9 1 0  9 1 0  9 1 0  9 1 0  9 1 0  9 1 0
9 1 0  9 1 0  9 1 0  9 1 0  9 1 0  9 1 0
9 1 0  9 1 0
9 1 0  9 1 0  9 1 0  9 1 0  9 1 0  9 1 0
9 1 0  9 1 0  9 1 0  9 1 0  9 1 0  9 1 0
9 1 0  9 1 0  9 1 0  9 1 0  9 1 0  183 132 93
209 169 107  209 169 107  172 157 112  84 131 52  104 178 56  94 178 46
94 178 46  107 179 49  103 166 66  108 127 57  230 191 141  219 185 142
139 122 92  20 5 3  178 154 124  238 198 150  240 205 144  240 205 144
240 205 144  240 205 144  243 201 144  238 198 150  191 153 116  51 31 22
61 45 28  170 138 110  210 170 130  78 63 40  34 48 35  34 48 35
27 41 27  27 41 27  33 34 21  9 1 0  9 1 0  9 1 0
9 1 0  9 1 0  238 198 150  191 153 116  146 107 73  160 122 86
9 1 0  9 1 0  9 1 0  9 1 0  9 1 0  9 1 0
9 1 0  9 1 0  9 1 0  9 1 0  9 1 0  9 1 0
9 1 0  9 1 0  9 1 0  9 1 0  9 1 0  9 1 0
9 1 0  9 1 0
9 1 0  9 1 0  9 1 0  9 1 0  9 1 0  9 1 0
9 1 0  9 1 0  9 1 0  9 1 0  9 1 0  9 1 0
9 1 0  9 1 0  9 1 0  9 1 0  9 1 0  9 1 0
204 170 114  204 170 114  108 127 57  104 178 56  107 179 49  94 178 46
95 172 50  96 130 51  159 147 87  238 189 135  236 182 133  237 196 139
233 187 141  191 153 116  191 153 116  243 201 144  240 205 144  240 205 144
240 205 144  243 201 144  243 201 144  237 196 139  210 170 130  210 170 130
233 187 141  236 182 133  236 182 133  191 153 116  50 44 25  34 48 35
35 51 30  35 60 36  35 51 30  178 154 124  210 170 130  176 139 103
160 122 86  176 139 103  172 143 97  204 170 114  204 170 114  9 1 0
9 1 0  9 1 0  9 1 0  9 1 0  9 1 0  9 1 0
9 1 0  9 1 0  9 1 0  9 1 0  9 1 0  9 1 0
9 1 0  9 1 0  9 1 0  9 1 0  9 1 0  9 1 0
9 1 0  9 1 0
9 1 0  9 1 0  9 1 0  9 1 0  9 1 0  9 1 0
9 1 0  9 1 0  9 1 0  9 1 0  9 1 0  9 1 0
9 1 0  9 1 0  9 1 0  9 1 0  9 1 0  9 1 0
206 156 123  159 147 87  95 152 60  104 178 56  96 172 58  98 142 49
127 116 68  217 172 125  236 182 133  236 182 133  236 182 133  236 182 133
237 196 139  237 196 139  237 196 139  240 205 144  243 201 144  240 205 144
243 201 144  243 201 144  237 196 139  237 196 139  237 196 139  233 187 141
238 189 135  236 182 133  236 176 128  236 176 128  191 153 116  78 63 40
43 60 40  43 60 40  49 73 45  53 49 20  172 143 97  204 170 114
204 170 114  209 169 107  209 169 107  210 164 112  9 1 0  9 1 0
9 1 0  9 1 0  9 1 0  9 1 0  9 1 0  9 1 0
9 1 0  9 1 0  9 1 0  9 1 0  9 1 0  9 1 0
9 1 0  9 1 0  9 1 0  9 1 0  9 1 0  9 1 0
9 1 0  9 1 0
9 1 0  9 1 0  9 1 0  9 1 0  9 1 0  9 1 0
9 1 0  9 1 0  9 1 0  9 1 0  9 1 0  9 1 0
9 1 0  9 1 0  9 1 0  9 1 0  9 1 0  9 1 0
9 1 0  89 106 45  121 163 67  84 131 52  115 119 65  132 104 67
224 168 130  230 170 121  236 176 128  236 176 128  236 182 133  238 189 135
238 189 135  237 196 139  230 191 141  238 198 150  240 205 144  237 196 139
237 196 139  237 196 139  230 191 141  217 172 125  238 189 135  236 182 133
236 182 133  236 176 128  236 176 128  230 170 121  230 170 121  224 168 130
131 104 80  45 56 30  49 73 45  45 56 30  135 122 82  209 169 107
204 170 114  210 164 112  9 1 0  9 1 0  9 1 0  9 1 0
9 1 0  9 1 0  9 1 0  9 1 0  9 1 0  9 1 0
9 1 0  9 1 0  9 1 0  9 1 0  9 1 0  9 1 0
9 1 0  9 1 0  9 1 0  9 1 0  9 1 0  9 1 0
9 1 0  9 1 0
9 1 0  9 1 0  9 1 0  9 1 0  9 1 0  9 1 0
9 1 0  9 1 0  9 1 0  9 1 0  9 1 0  9 1 0
9 1 0  9 1 0  9 1 0  9 1 0  9 1 0  9 1 0
9 1 0  9 1 0  97 82 51  139 122 92  158 143 98  137 104 82
187 139 113  224 168 130  236 176 128  236 176 128  237 181 124  238 189 135
233 187 141  191 153 116  176 139 103  146 107 73  160 122 86  176 139 103
176 139 103  146 107 73  160 122 86  191 153 116  237 196 139  236 182 133
236 176 128  236 176 128  230 170 121  230 170 121  230 170 121  187 139 113
131 104 80  178 154 124  109 90 66  67 63 46  78 63 40  9 1 0
9 1 0  9 1 0  9 1 0  9 1 0  9 1 0  9 1 0
9 1 0  9 1 0  9 1 0  9 1 0  9 1 0  9 1 0
9 1 0  9 1 0  9 1 0  9 1 0  9 1 0  9 1 0
9 1 0  9 1 0  9 1 0  9 1 0  9 1 0  9 1 0
9 1 0  9 1 0
9 1 0  9 1 0  9 1 0  9 1 0  9 1 0  9 1 0
9 1 0  9 1 0  9 1 0  9 1 0  9 1 0  9 1 0
9 1 0  9 1 0  9 1 0  9 1 0  9 1 0  9 1 0
9 1 0  9 1 0  70 8 11  20 5 3  9 1 0  9 1 0
51 31 22  206 156 123  224 168 130  236 182 133  236 176 128  236 182 133
233 187 141  200 156 110  237 196 139  230 191 141  210 170 130  200 156 110
217 172 125  233 187 141  233 187 141  176 139 103  160 122 86  176 139 103
176 139 103  206 156 123  224 168 130  224 168 130  176 139 103  32 9 6
9 1 0  87 22 25  9 1 0  9 1 0  9 1 0  9 1 0
9 1 0  9 1 0  9 1 0  9 1 0  9 1 0  9 1 0
9 1 0  9 1 0  9 1 0  9 1 0  9 1 0  9 1 0
9 1 0  9 1 0  9 1 0  9 1 0  9 1 0  9 1 0
9 1 0  9 1 0  9 1 0  9 1 0  9 1 0  9 1 0
9 1 0  9 1 0
9 1 0  9 1 0  9 1 0  9 1 0  9 1 0  9 1 0
9 1 0  9 1 0  9 1 0  9 1 0  9 1 0  9 1 0
9 1 0  9 1 0  9 1 0  9 1 0  9 1 0  9 1 0
9 1 0  9 1 0  70 8 11  70 8 11  92 39 45  9 1 0
9 1 0  51 31 22  206 156 123  236 176 128  236 182 133  224 168 130
233 187 141  236 182 133  233 187 141  238 189 135  238 189 135  233 187 141
233 187 141  233 187 141  233 187 141  210 170 130  210 170 130  137 104 82
93 54 43  206 156 123  224 168 130  164 120 99  20 5 3  9 1 0
9 1 0  56 5 9  9 1 0  9 1 0  9 1 0  9 1 0
9 1 0  9 1 0  9 1 0  9 1 0  9 1 0  9 1 0
9 1 0  9 1 0  9 1 0  9 1 0  9 1 0  9 1 0
9 1 0  9 1 0  9 1 0  9 1 0  9 1 0  9 1 0
9 1 0  9 1 0  9 1 0  9 1 0  9 1 0  9 1 0
9 1 0  9 1 0
9 1 0  9 1 0  9 1 0  9 1 0  9 1 0  9 1 0
9 1 0  9 1 0  9 1 0  9 1 0  9 1 0  9 1 0
9 1 0  9 1 0  9 1 0  9 1 0  9 1 0  9 1 0
9 1 0  9 1 0  9 1 0  9 1 0  70 8 11  9 1 0
9 1 0  9 1 0  20 5 3  152 119 94  227 178 144  121 86 72
62 40 29  121 86 72  152 119 94  170 138 110  170 138 110  170 138 110
131 104 80  84 62 50  62 40 29  32 9 6  32 9 6  164 120 99
224 168 130  187 139 113  62 40 29  9 1 0  9 1 0  4 8 5
9 1 0  32 9 6  9 1 0  9 1 0  9 1 0  9 1 0
9 1 0  9 1 0  9 1 0  9 1 0  9 1 0  9 1 0
9 1 0  9 1 0  9 1 0  9 1 0  9 1 0  9 1 0
9 1 0  9 1 0  9 1 0  9 1 0  9 1 0  9 1 0
9 1 0  9 1 0  9 1 0  9 1 0  9 1 0  9 1 0
9 1 0  9 1 0
9 1 0  9 1 0  9 1 0  133 147 62  9 1 0  9 1 0
9 1 0  9 1 0  9 1 0  9 1 0  9 1 0  9 1 0
9 1 0  9 1 0  9 1 0  9 1 0  9 1 0  9 1 0
9 1 0  9 1 0  9 1 0  9 1 0  56 5 9  23 3 8
20 5 3  9 1 0  9 1 0  9 1 0  67 63 46  160 138 108
62 40 29  9 1 0  32 9 6  41 7 7  32 9 6  34 2 3
56 5 9  34 2 3  20 5 3  84 62 50  160 138 108  131 104 80
40 18 11  9 1 0  9 1 0  9 1 0  9 1 0  20 5 3
41 7 7  34 2 3  9 1 0  9 1 0  9 1 0  9 1 0
9 1 0  9 1 0  9 1 0  9 1 0  9 1 0  9 1 0
9 1 0  9 1 0  9 1 0  9 1 0  9 1 0  9 1 0
9 1 0  9 1 0  9 1 0  9 1 0  9 1 0  9 1 0
9 1 0  9 1 0  9 1 0  9 1 0  9 1 0  9 1 0
9 1 0  9 1 0
9 1 0  9 1 0  141 155 60  141 155 60  9 1 0  9 1 0
9 1 0  9 1 0  9 1 0  9 1 0  9 1 0  9 1 0
9 1 0  9 1 0  9 1 0  9 1 0  9 1 0  9 1 0
9 1 0  9 1 0  9 1 0  9 1 0  9 1 0  9 1 0
87 22 25  61 21 19  49 4 4  53 49 20  121 163 67  110 138 49
158 143 98  114 77 59  121 55 42  132 38 37  132 38 37  132 38 37
132 38 37  121 55 42  152 119 94  146 143 93  108 127 57  25 34 15
9 1 0  23 3 8  23 3 8  64 24 22  49 4 4  87 22 25
9 1 0  9 1 0  9 1 0  9 1 0  9 1 0  9 1 0
9 1 0  9 1 0  9 1 0  9 1 0  9 1 0  9 1 0
9 1 0  9 1 0  9 1 0  9 1 0  9 1 0  9 1 0
9 1 0  9 1 0  9 1 0  9 1 0  9 1 0  9 1 0
9 1 0  9 1 0  9 1 0  9 1 0  9 1 0  9 1 0
9 1 0  9 1 0
9 1 0  9 1 0  125 171 57  133 130 54  9 1 0  9 1 0
9 1 0  9 1 0  9 1 0  9 1 0  9 1 0  9 1 0
9 1 0  9 1 0  9 1 0  9 1 0  9 1 0  9 1 0
9 1 0  9 1 0  9 1 0  9 1 0  9 1 0  9 1 0
9 1 0  9 1 0  9 1 0  125 121 48  122 179 62  122 181 54
110 138 49  135 122 82  187 139 113  150 82 63  121 55 42  150 82 63
187 139 113  172 143 97  100 112 40  122 179 62  121 163 67  63 46 21
9 1 0  87 22 25  70 8 11  9 1 0  9 1 0  9 1 0
9 1 0  9 1 0  9 1 0  9 1 0  9 1 0  9 1 0
9 1 0  9 1 0  9 1 0  9 1 0  9 1 0  9 1 0
9 1 0  9 1 0  9 1 0  9 1 0  9 1 0  9 1 0
9 1 0  9 1 0  9 1 0  9 1 0  9 1 0  9 1 0
9 1 0  9 1 0  9 1 0  9 1 0  9 1 0  9 1 0
9 1 0  9 1 0
9 1 0  132 171 58  127 179 53  9 1 0  9 1 0  9 1 0
9 1 0  9 1 0  9 1 0  9 1 0  9 1 0  9 1 0
9 1 0  9 1 0  9 1 0  9 1 0  9 1 0  9 1 0
9 1 0  9 1 0  9 1 0  9 1 0  9 1 0  9 1 0
9 1 0  9 1 0  9 1 0  131 152 53  122 181 54  117 186 37
124 182 46  118 158 51  108 127 57  127 116 68  135 122 82  115 119 65
110 138 49  125 171 57  119 184 47  111 185 46  128 157 56  9 1 0
9 1 0  9 1 0  9 1 0  9 1 0  9 1 0  9 1 0
9 1 0  9 1 0  9 1 0  9 1 0  9 1 0  9 1 0
9 1 0  9 1 0  9 1 0  9 1 0  9 1 0  9 1 0
9 1 0  9 1 0  9 1 0  9 1 0  9 1 0  9 1 0
9 1 0  9 1 0  9 1 0  9 1 0  9 1 0  9 1 0
9 1 0  9 1 0  9 1 0  9 1 0  9 1 0  9 1 0
9 1 0  9 1 0
9 1 0  122 181 54  127 179 53  125 121 48  9 1 0  9 1 0
9 1 0  9 1 0  9 1 0  9 1 0  9 1 0  9 1 0
9 1 0  9 1 0  9 1 0  9 1 0  9 1 0  9 1 0
9 1 0  9 1 0  9 1 0  9 1 0  9 1 0  9 1 0
9 1 0  9 1 0  9 1 0  125 171 57  107 179 49  88 151 39
122 181 54  117 186 37  124 182 46  122 181 54  122 179 62  122 181 54
119 184 47  111 185 46  122 181 54  119 184 47  131 152 53  9 1 0
9 1 0  9 1 0  9 1 0  9 1 0  9 1 0  9 1 0
9 1 0  9 1 0  9 1 0  9 1 0  9 1 0  9 1 0
9 1 0  9 1 0  9 1 0  9 1 0  9 1 0  9 1 0
9 1 0  9 1 0  9 1 0  9 1 0  9 1 0  9 1 0
9 1 0  9 1 0  9 1 0  9 1 0  9 1 0  9 1 0
9 1 0  9 1 0  9 1 0  9 1 0  9 1 0  9 1 0
9 1 0  9 1 0
118 91 39  122 181 54  124 182 46  131 152 53  9 1 0  9 1 0
9 1 0  9 1 0  9 1 0  9 1 0  9 1 0  9 1 0
9 1 0  9 1 0  9 1 0  9 1 0  9 1 0  9 1 0
9 1 0  9 1 0  9 1 0  9 1 0  9 1 0  9 1 0
9 1 0  9 1 0  9 1 0  122 179 62  83 148 51  112 171 57
111 185 46  111 185 46  117 186 37  117 186 37  117 186 37  117 186 37
111 185 46  122 181 54  83 136 49  122 179 62  125 121 48  9 1 0
9 1 0  9 1 0  9 1 0  9 1 0  9 1 0  9 1 0
9 1 0  9 1 0  9 1 0  9 1 0  9 1 0  9 1 0
9 1 0  9 1 0  9 1 0  9 1 0  9 1 0  9 1 0
9 1 0  9 1 0  9 1 0  9 1 0  9 1 0  9 1 0
9 1 0  9 1 0  9 1 0  9 1 0  9 1 0  9 1 0
9 1 0  9 1 0  9 1 0  9 1 0  9 1 0  9 1 0
9 1 0  9 1 0
9 1 0  127 179 53  111 185 46  134 165 52  9 1 0  9 1 0
9 1 0  9 1 0  9 1 0  9 1 0  9 1 0  9 1 0
9 1 0  9 1 0  9 1 0  9 1 0  9 1 0  9 1 0
9 1 0  9 1 0  9 1 0  9 1 0  9 1 0  9 1 0
9 1 0  9 1 0  128 157 56  104 178 56  65 130 31  111 185 46
111 185 46  100 183 40  100 183 40  100 183 40  100 183 40  100 183 40
100 183 40  122 181 54  65 130 31  122 179 62  118 91 39  9 1 0
9 1 0  9 1 0  9 1 0  9 1 0  9 1 0  9 1 0
9 1 0  9 1 0  9 1 0  9 1 0  9 1 0  9 1 0
9 1 0  9 1 0  9 1 0  9 1 0  9 1 0  9 1 0
9 1 0  9 1 0  9 1 0  9 1 0  9 1 0  9 1 0
9 1 0  9 1 0  9 1 0  9 1 0  9 1 0  9 1 0
9 1 0  9 1 0  9 1 0  9 1 0  9 1 0  9 1 0
9 1 0  9 1 0
9 1 0  134 165 52  117 186 37  127 179 53  9 1 0  9 1 0
9 1 0  9 1 0  9 1 0  9 1 0  9 1 0  9 1 0
9 1 0  9 1 0  9 1 0  9 1 0  9 1 0  9 1 0
9 1 0  9 1 0  9 1 0  9 1 0  9 1 0  9 1 0
9 1 0  9 1 0  112 171 57  90 167 61  65 130 31  94 178 46
100 183 40  100 183 40  100 183 40  100 183 40  100 183 40  100 183 40
100 183 40  96 172 58  65 130 31  125 171 57  9 1 0  9 1 0
9 1 0  9 1 0  9 1 0  9 1 0  9 1 0  9 1 0
9 1 0  9 1 0  9 1 0  9 1 0  9 1 0  9 1 0
9 1 0  9 1 0  9 1 0  9 1 0  9 1 0  9 1 0
9 1 0  9 1 0  9 1 0  9 1 0  9 1 0  9 1 0
9 1 0  9 1 0  9 1 0  9 1 0  9 1 0  9 1 0
9 1 0  9 1 0  9 1 0  9 1 0  9 1 0  9 1 0
9 1 0  9 1 0
9 1 0  128 157 56  119 184 47  119 184 47  133 130 54  9 1 0
9 1 0  9 1 0  9 1 0  9 1 0  9 1 0  9 1 0
9 1 0  9 1 0  9 1 0  9 1 0  9 1 0  9 1 0
9 1 0  9 1 0  9 1 0  9 1 0  9 1 0  9 1 0
9 1 0  9 1 0  112 171 57  74 142 53  80 155 49  91 177 55
90 181 39  90 181 39  94 178 46  94 178 46  94 178 46  94 178 46
94 178 46  80 155 49  73 145 31  118 158 51  9 1 0  9 1 0
9 1 0  9 1 0  9 1 0  9 1 0  9 1 0  9 1 0
9 1 0  9 1 0  9 1 0  9 1 0  9 1 0  9 1 0
9 1 0  9 1 0  9 1 0  9 1 0  9 1 0  9 1 0
9 1 0  9 1 0  9 1 0  9 1 0  9 1 0  9 1 0
9 1 0  9 1 0  9 1 0  9 1 0  9 1 0  9 1 0
9 1 0  9 1 0  9 1 0  9 1 0  9 1 0  9 1 0
9 1 0  9 1 0
9 1 0  134 167 62  119 184 47  124 182 46  130 117 46  9 1 0
9 1 0  9 1 0  9 1 0  9 1 0  9 1 0  9 1 0
9 1 0  9 1 0  9 1 0  9 1 0  9 1 0  9 1 0
9 1 0  9 1 0  9 1 0  9 1 0  9 1 0  9 1 0
9 1 0  100 112 40  90 167 61  44 123 35  96 172 58  84 180 46
84 180 46  84 180 46  84 180 46  84 180 46  84 180 46  84 180 46
84 180 46  60 137 33  73 154 57  121 163 67  9 1 0  9 1 0
9 1 0  9 1 0  9 1 0  9 1 0  9 1 0  9 1 0
9 1 0  9 1 0  9 1 0  9 1 0  9 1 0  9 1 0
9 1 0  9 1 0  9 1 0  9 1 0  9 1 0  9 1 0
9 1 0  9 1 0  9 1 0  9 1 0  9 1 0  9 1 0
9 1 0  9 1 0  9 1 0  9 1 0  9 1 0  9 1 0
9 1 0  9 1 0  9 1 0  9 1 0  9 1 0  9 1 0
9 1 0  9 1 0
9 1 0  134 167 62  117 186 37  131 176 51  9 1 0  9 1 0
9 1 0  9 1 0  9 1 0  9 1 0  9 1 0  9 1 0
9 1 0  9 1 0  9 1 0  134 165 52  141 155 60  9 1 0
9 1 0  9 1 0  9 1 0  9 1 0  9 1 0  9 1 0
9 1 0  96 130 51  76 174 53  44 123 35  76 174 53  76 174 53
76 174 53  76 174 53  76 174 53  84 180 46  84 180 46  84 180 46
76 174 53  44 123 35  80 166 70  108 127 57  9 1 0  9 1 0
9 1 0  9 1 0  9 1 0  9 1 0  9 1 0  9 1 0
9 1 0  9 1 0  9 1 0  9 1 0  9 1 0  9 1 0
9 1 0  9 1 0  9 1 0  9 1 0  9 1 0  9 1 0
9 1 0  9 1 0  9 1 0  9 1 0  9 1 0  9 1 0
9 1 0  9 1 0  9 1 0  9 1 0  9 1 0  9 1 0
9 1 0  9 1 0  9 1 0  9 1 0  9 1 0  9 1 0
9 1 0  9 1 0
9 1 0  134 167 62  117 186 37  128 157 56  9 1 0  9 1 0
9 1 0  9 1 0  9 1 0  9 1 0  9 1 0  9 1 0
9 1 0  134 165 52  127 179 53  125 171 57  122 181 54  127 179 53
134 165 52  9 1 0  9 1 0  9 1 0  9 1 0  9 1 0
9 1 0  81 142 63  66 162 63  31 136 44  44 169 50  44 169 50
60 175 48  60 175 48  60 175 48  60 175 48  60 175 48  60 175 48
39 164 56  44 123 35  80 166 70  89 106 45  9 1 0  9 1 0
9 1 0  9 1 0  9 1 0  9 1 0  9 1 0  9 1 0
9 1 0  9 1 0  9 1 0  9 1 0  9 1 0  9 1 0
9 1 0  9 1 0  9 1 0  9 1 0  9 1 0  9 1 0
9 1 0  9 1 0  9 1 0  9 1 0  9 1 0  9 1 0
9 1 0  9 1 0  9 1 0  9 1 0  9 1 0  9 1 0
9 1 0  9 1 0  9 1 0  133 130 54  152 144 74  9 1 0
9 1 0  9 1 0
9 1 0  134 167 62  117 186 37  134 165 52  9 1 0  9 1 0
9 1 0  9 1 0  9 1 0  9 1 0  9 1 0  132 143 50
125 171 57  127 179 53  125 121 48  9 1 0  133 130 54  131 176 51
122 181 54  104 178 56  121 163 67  9 1 0  9 1 0  9 1 0
9 1 0  44 147 58  29 134 51  31 136 44  56 163 61  39 164 56
39 164 56  44 169 50  44 169 50  44 169 50  44 169 50  44 169 50
56 163 61  44 123 35  73 154 57  9 1 0  9 1 0  9 1 0
9 1 0  9 1 0  9 1 0  9 1 0  9 1 0  9 1 0
9 1 0  9 1 0  9 1 0  9 1 0  9 1 0  9 1 0
9 1 0  9 1 0  9 1 0  9 1 0  9 1 0  9 1 0
9 1 0  9 1 0  9 1 0  9 1 0  9 1 0  9 1 0
9 1 0  9 1 0  9 1 0  9 1 0  9 1 0  9 1 0
9 1 0  9 1 0  134 167 62  134 167 62  9 1 0  9 1 0
9 1 0  9 1 0
9 1 0  134 165 52  124 182 46  125 171 57  9 1 0  9 1 0
9 1 0  9 1 0  9 1 0  9 1 0  125 171 57  122 181 54
134 167 62  9 1 0  9 1 0  9 1 0  9 1 0  9 1 0
110 138 49  112 171 57  84 171 49  83 163 48  84 131 52  88 71 30
55 85 43  49 135 58  27 102 43  29 134 51  44 147 58  44 147 58
23 152 50  23 152 50  23 152 50  23 152 50  23 152 50  23 152 50
44 147 58  49 135 58  67 127 54  9 1 0  9 1 0  9 1 0
9 1 0  9 1 0  9 1 0  9 1 0  9 1 0  9 1 0
9 1 0  9 1 0  9 1 0  9 1 0  9 1 0  9 1 0
9 1 0  9 1 0  9 1 0  9 1 0  9 1 0  9 1 0
9 1 0  9 1 0  9 1 0  9 1 0  9 1 0  9 1 0
9 1 0  9 1 0  9 1 0  9 1 0  9 1 0  9 1 0
131 152 53  122 181 54  127 179 53  9 1 0  9 1 0  9 1 0
9 1 0  9 1 0
9 1 0  9 1 0  131 176 51  122 181 54  140 141 61  9 1 0
9 1 0  9 1 0  133 147 62  131 176 51  132 171 58  132 143 50
9 1 0  9 1 0  9 1 0  9 1 0  9 1 0  9 1 0
9 1 0  9 1 0  95 152 60  76 174 53  56 163 61  49 135 58
21 89 31  26 118 48  21 89 31  49 135 58  29 134 51  29 134 51
29 134 51  29 134 51  29 134 51  29 134 51  29 134 51  29 134 51
26 118 48  26 118 48  68 106 50  9 1 0  9 1 0  9 1 0
9 1 0  9 1 0  9 1 0  9 1 0  9 1 0  9 1 0
9 1 0  9 1 0  9 1 0  133 130 54  133 130 54  9 1 0
9 1 0  9 1 0  9 1 0  9 1 0  9 1 0  9 1 0
9 1 0  9 1 0  9 1 0  9 1 0  9 1 0  9 1 0
9 1 0  9 1 0  9 1 0  9 1 0  9 1 0  134 165 52
117 186 37  119 184 47  131 152 53  9 1 0  9 1 0  9 1 0
9 1 0  9 1 0
9 1 0  9 1 0  132 143 50  124 182 46  134 167 62  9 1 0
9 1 0  140 141 61  134 167 62  133 147 62  9 1 0  9 1 0
9 1 0  9 1 0  9 1 0  9 1 0  9 1 0  9 1 0
9 1 0  9 1 0  9 1 0  84 131 52  44 147 58  49 135 58
21 89 31  34 100 47  17 88 37  9 106 44  26 118 48  26 118 48
26 118 48  26 118 48  26 118 48  26 118 48  26 118 48  26 118 48
21 89 31  27 102 43  55 85 43  9 1 0  9 1 0  9 1 0
9 1 0  9 1 0  9 1 0  9 1 0  122 136 50  128 157 56
134 167 62  131 176 51  122 181 54  119 184 47  131 176 51  9 1 0
9 1 0  9 1 0  9 1 0  9 1 0  9 1 0  9 1 0
9 1 0  9 1 0  9 1 0  9 1 0  9 1 0  9 1 0
9 1 0  9 1 0  9 1 0  9 1 0  134 167 62  117 186 37
119 184 47  132 171 58  9 1 0  9 1 0  9 1 0  9 1 0
9 1 0  9 1 0
9 1 0  9 1 0  9 1 0  134 167 62  119 184 47  110 138 49
122 136 50  9 1 0  9 1 0  9 1 0  9 1 0  9 1 0
9 1 0  9 1 0  9 1 0  9 1 0  9 1 0  9 1 0
9 1 0  9 1 0  9 1 0  9 1 0  89 106 45  57 104 53
23 83 36  23 83 36  17 88 37  34 100 47  27 102 43  27 102 43
27 102 43  27 102 43  27 102 43  9 106 44  9 106 44  34 100 47
27 69 26  34 100 47  23 83 36  58 108 50  68 133 52  73 154 57
90 167 61  90 167 61  112 171 57  125 171 57  125 171 57  132 171 58
133 147 62  100 112 40  125 171 57  117 186 37  127 179 53  9 1 0
9 1 0  9 1 0  9 1 0  9 1 0  9 1 0  9 1 0
9 1 0  9 1 0  9 1 0  9 1 0  9 1 0  9 1 0
9 1 0  9 1 0  9 1 0  134 165 52  119 184 47  119 184 47
132 171 58  9 1 0  9 1 0  9 1 0  9 1 0  9 1 0
9 1 0  9 1 0
9 1 0  9 1 0  9 1 0  132 143 50  119 184 47  125 171 57
9 1 0  9 1 0  9 1 0  9 1 0  9 1 0  9 1 0
9 1 0  9 1 0  9 1 0  9 1 0  9 1 0  9 1 0
9 1 0  9 1 0  9 1 0  9 1 0  9 1 0  63 46 21
27 69 26  27 69 26  27 74 34  23 83 36  23 83 36  23 83 36
17 88 37  17 88 37  17 88 37  17 88 37  23 83 36  27 74 34
43 78 44  27 74 34  27 102 43  29 134 51  44 147 58  56 163 61
90 167 61  102 159 56  110 138 49  9 1 0  9 1 0  9 1 0
9 1 0  9 1 0  132 143 50  119 184 47  127 179 53  9 1 0
9 1 0  9 1 0  9 1 0  9 1 0  9 1 0  9 1 0
9 1 0  9 1 0  9 1 0  9 1 0  9 1 0  9 1 0
9 1 0  133 147 62  124 182 46  111 185 46  119 184 47  128 157 56
9 1 0  9 1 0  9 1 0  9 1 0  9 1 0  9 1 0
9 1 0  9 1 0
9 1 0  9 1 0  9 1 0  125 121 48  131 176 51  140 141 61
9 1 0  9 1 0  9 1 0  9 1 0  9 1 0  9 1 0
9 1 0  9 1 0  9 1 0  9 1 0  9 1 0  9 1 0
9 1 0  9 1 0  9 1 0  9 1 0  9 1 0  9 1 0
45 56 30  25 50 18  28 60 32  27 60 26  27 69 26  27 69 26
27 69 26  27 69 26  27 69 26  27 69 26  27 74 34  28 60 32
27 60 26  27 60 26  57 104 53  58 118 51  79 124 64  89 106 45
9 1 0  9 1 0  9 1 0  9 1 0  9 1 0  9 1 0
9 1 0  9 1 0  140 141 61  124 182 46  127 179 53  9 1 0
9 1 0  9 1 0  9 1 0  9 1 0  9 1 0  9 1 0
9 1 0  9 1 0  9 1 0  9 1 0  9 1 0  122 136 50
134 172 49  119 184 47  124 182 46  132 171 58  134 136 46  9 1 0
9 1 0  9 1 0  9 1 0  9 1 0  9 1 0  9 1 0
9 1 0  9 1 0
9 1 0  9 1 0  9 1 0  9 1 0  152 144 74  9 1 0
9 1 0  9 1 0  9 1 0  9 1 0  9 1 0  9 1 0
9 1 0  9 1 0  9 1 0  9 1 0  9 1 0  9 1 0
9 1 0  9 1 0  9 1 0  9 1 0  9 1 0  9 1 0
50 44 25  50 28 13  50 28 13  50 44 25  25 50 18  25 50 18
25 50 18  25 50 18  25 50 18  28 60 32  35 60 36  19 45 23
35 51 30  9 1 0  9 1 0  9 1 0  9 1 0  9 1 0
9 1 0  9 1 0  9 1 0  9 1 0  9 1 0  9 1 0
9 1 0  9 1 0  9 1 0  127 179 53  131 176 51  118 97 42
9 1 0  9 1 0  9 1 0  9 1 0  9 1 0  9 1 0
9 1 0  9 1 0  125 121 48  134 167 62  122 181 54  119 184 47
119 184 47  132 171 58  133 130 54  9 1 0  9 1 0  9 1 0
9 1 0  9 1 0  9 1 0  9 1 0  9 1 0  9 1 0
9 1 0  9 1 0
9 1 0  9 1 0  9 1 0  9 1 0  9 1 0  9 1 0
9 1 0  9 1 0  9 1 0  9 1 0  9 1 0  9 1 0
9 1 0  9 1 0  9 1 0  9 1 0  9 1 0  9 1 0
9 1 0  9 1 0  9 1 0  9 1 0  9 1 0  9 1 0
35 26 9  9 1 0  9 1 0  9 1 0  9 1 0  61 21 19
50 28 13  50 28 13  54 25 12  54 25 12  51 31 22  23 29 7
54 25 12  9 1 0  9 1 0  9 1 0  9 1 0  9 1 0
9 1 0  9 1 0  9 1 0  9 1 0  9 1 0  9 1 0
9 1 0  9 1 0  9 1 0  133 147 62  131 176 51  115 110 44
9 1 0  9 1 0  9 1 0  9 1 0  9 1 0  9 1 0
128 157 56  127 179 53  124 182 46  119 184 47  127 179 53  134 167 62
9 1 0  9 1 0  9 1 0  9 1 0  9 1 0  9 1 0
9 1 0  9 1 0  9 1 0  9 1 0  9 1 0  9 1 0
9 1 0  9 1 0
9 1 0  9 1 0  9 1 0  9 1 0  9 1 0  9 1 0
9 1 0  9 1 0  9 1 0  9 1 0  9 1 0  9 1 0
9 1 0  9 1 0  9 1 0  9 1 0  9 1 0  9 1 0
9 1 0  9 1 0  9 1 0  9 1 0  9 1 0  56 5 9
41 7 7  9 1 0  9 1 0  9 1 0  9 1 0  9 1 0
9 1 0  9 1 0  9 1 0  9 1 0  9 1 0  40 18 11
9 1 0  9 1 0  9 1 0  9 1 0  9 1 0  9 1 0
9 1 0  9 1 0  9 1 0  9 1 0  9 1 0  9 1 0
9 1 0  9 1 0  9 1 0  9 1 0  141 155 60  140 141 61
9 1 0  9 1 0  9 1 0  9 1 0  133 147 62  127 179 53
119 184 47  124 182 46  128 157 56  133 130 54  9 1 0  9 1 0
9 1 0  9 1 0  9 1 0  9 1 0  9 1 0  9 1 0
9 1 0  9 1 0  9 1 0  9 1 0  9 1 0  9 1 0
9 1 0  9 1 0
9 1 0  9 1 0  9 1 0  9 1 0  9 1 0  9 1 0
9 1 0  9 1 0  9 1 0  9 1 0  9 1 0  9 1 0
9 1 0  9 1 0  9 1 0  9 1 0  9 1 0  9 1 0
9 1 0  9 1 0  9 1 0  9 1 0  9 1 0  49 4 4
49 4 4  9 1 0  9 1 0  9 1 0  9 1 0  9 1 0
9 1 0  9 1 0  9 1 0  9 1 0  9 1 0  41 7 7
9 1 0  9 1 0  9 1 0  9 1 0  9 1 0  9 1 0
9 1 0  9 1 0  9 1 0  9 1 0  9 1 0  9 1 0
9 1 0  9 1 0  9 1 0  9 1 0  9 1 0  152 144 74
9 1 0  9 1 0  9 1 0  131 176 51  119 184 47  117 186 37
122 181 54  125 121 48  9 1 0  9 1 0  9 1 0  9 1 0
9 1 0  9 1 0  9 1 0  9 1 0  9 1 0  9 1 0
9 1 0  9 1 0  9 1 0  9 1 0  9 1 0  9 1 0
9 1 0  9 1 0
9 1 0  9 1 0  9 1 0  9 1 0  9 1 0  9 1 0
9 1 0  9 1 0  9 1 0  9 1 0  9 1 0  9 1 0
9 1 0  9 1 0  9 1 0  9 1 0  9 1 0  9 1 0
9 1 0  9 1 0  9 1 0  9 1 0  9 1 0  41 7 7
49 4 4  9 1 0  9 1 0  9 1 0  9 1 0  9 1 0
9 1 0  9 1 0  9 1 0  9 1 0  70 8 11  49 4 4
9 1 0  9 1 0  9 1 0  9 1 0  9 1 0  9 1 0
9 1 0  9 1 0  9 1 0  9 1 0  9 1 0  9 1 0
9 1 0  9 1 0  9 1 0  9 1 0  9 1 0  9 1 0
133 147 62  125 171 57  119 184 47  117 186 37  111 185 46  132 171 58
9 1 0  9 1 0  9 1 0  9 1 0  9 1 0  9 1 0
9 1 0  9 1 0  9 1 0  9 1 0  9 1 0  9 1 0
9 1 0  9 1 0  9 1 0  9 1 0  9 1 0  9 1 0
9 1 0  9 1 0
9 1 0  9 1 0  9 1 0  9 1 0  9 1 0  9 1 0
9 1 0  9 1 0  9 1 0  9 1 0  9 1 0  9 1 0
9 1 0  9 1 0  9 1 0  9 1 0  9 1 0  9 1 0
9 1 0  9 1 0  9 1 0  9 1 0  9 1 0  34 2 3
9 1 0  9 1 0  9 1 0  9 1 0  9 1 0  9 1 0
9 1 0  9 1 0  9 1 0  9 1 0  164 120 99  9 1 0
9 1 0  9 1 0  9 1 0  9 1 0  9 1 0  9 1 0
9 1 0  9 1 0  9 1 0  9 1 0  9 1 0  9 1 0
9 1 0  9 1 0  9 1 0  9 1 0  9 1 0  9 1 0
128 157 56  119 184 47  119 184 47  117 186 37  134 165 52  9 1 0
9 1 0  9 1 0  9 1 0  9 1 0  9 1 0  9 1 0
9 1 0  9 1 0  9 1 0  9 1 0  9 1 0  9 1 0
9 1 0  9 1 0  9 1 0  9 1 0  9 1 0  9 1 0
9 1 0  9 1 0
9 1 0  9 1 0  9 1 0  9 1 0  9 1 0  9 1 0
9 1 0  9 1 0  9 1 0  9 1 0  9 1 0  9 1 0
9 1 0  9 1 0  9 1 0  9 1 0  9 1 0  9 1 0
9 1 0  9 1 0  9 1 0  9 1 0  9 1 0  206 156 123
9 1 0  9 1 0  9 1 0  9 1 0  9 1 0  9 1 0
9 1 0  9 1 0  9 1 0  9 1 0  238 189 135  206 156 123
201 134 103  9 1 0  9 1 0  9 1 0  9 1 0  9 1 0
9 1 0  9 1 0  9 1 0  9 1 0  9 1 0  9 1 0
9 1 0  9 1 0  9 1 0  9 1 0  9 1 0  9 1 0
127 179 53  119 184 47  131 176 51  122 136 50  9 1 0  9 1 0
9 1 0  9 1 0  9 1 0  9 1 0  9 1 0  9 1 0
9 1 0  9 1 0  9 1 0  9 1 0  9 1 0  9 1 0
9 1 0  9 1 0  9 1 0  9 1 0  9 1 0  9 1 0
9 1 0  9 1 0
9 1 0  9 1 0  9 1 0  9 1 0  9 1 0  9 1 0
9 1 0  9 1 0  9 1 0  9 1 0  9 1 0  9 1 0
9 1 0  9 1 0  9 1 0  9 1 0  9 1 0  9 1 0
9 1 0  9 1 0  9 1 0  9 1 0  233 187 141  243 201 144
233 187 141  9 1 0  9 1 0  9 1 0  9 1 0  9 1 0
9 1 0  9 1 0  9 1 0  9 1 0  233 201 149  238 198 150
238 198 150  134 81 56  9 1 0  9 1 0  9 1 0  9 1 0
9 1 0  9 1 0  9 1 0  9 1 0  9 1 0  9 1 0
9 1 0  9 1 0  9 1 0  9 1 0  9 1 0  9 1 0
141 155 60  133 130 54  9 1 0  9 1 0  9 1 0  9 1 0
9 1 0  9 1 0  9 1 0  9 1 0  9 1 0  9 1 0
9 1 0  9 1 0  9 1 0  9 1 0  9 1 0  9 1 0
9 1 0  9 1 0  9 1 0  9 1 0  9 1 0  9 1 0
9 1 0  9 1 0
9 1 0  9 1 0  9 1 0  9 1 0  9 1 0  9 1 0
9 1 0  9 1 0  9 1 0  9 1 0  9 1 0  9 1 0
9 1 0  9 1 0  9 1 0  9 1 0  9 1 0  9 1 0
9 1 0  9 1 0  9 1 0  9 1 0  233 201 149  240 205 144
243 201 144  9 1 0  9 1 0  9 1 0  9 1 0  9 1 0
9 1 0  9 1 0  9 1 0  9 1 0  9 1 0  210 170 130
9 1 0  9 1 0  9 1 0  9 1 0  9 1 0  9 1 0
9 1 0  9 1 0  9 1 0  9 1 0  9 1 0  9 1 0
9 1 0  9 1 0  9 1 0  9 1 0  9 1 0  9 1 0
9 1 0  9 1 0  9 1 0  9 1 0  9 1 0  9 1 0
9 1 0  9 1 0  9 1 0  9 1 0  9 1 0  9 1 0
9 1 0  9 1 0  9 1 0  9 1 0  9 1 0  9 1 0
9 1 0  9 1 0  9 1 0  9 1 0  9 1 0  9 1 0
9 1 0  9 1 0
9 1 0  9 1 0  9 1 0  9 1 0  9 1 0  9 1 0
9 1 0  9 1 0  9 1 0  9 1 0  9 1 0  9 1 0
9 1 0  9 1 0  9 1 0  9 1 0  9 1 0  9 1 0
9 1 0  9 1 0  9 1 0  9 1 0  9 1 0  9 1 0
9 1 0  9 1 0  9 1 0  9 1 0  9 1 0  9 1 0
9 1 0  9 1 0  9 1 0  9 1 0  9 1 0  9 1 0
9 1 0  9 1 0  9 1 0  9 1 0  9 1 0  9 1 0
9 1 0  9 1 0  9 1 0  9 1 0  9 1 0  9 1 0
9 1 0  9 1 0  9 1 0  9 1 0  9 1 0  9 1 0
9 1 0  9 1 0  9 1 0  9 1 0  9 1 0  9 1 0
9 1 0  9 1 0  9 1 0  9 1 0  9 1 0  9 1 0
9 1 0  9 1 0  9 1 0  9 1 0  9 1 0  9 1 0
9 1 0  9 1 0  9 1 0  9 1 0  9 1 0  9 1 0
9 1 0  9 1 0
9 1 0  9 1 0  9 1 0  9 1 0  9 1 0  9 1 0
9 1 0  9 1 0  9 1 0  9 1 0  9 1 0  9 1 0
9 1 0  9 1 0  9 1 0  9 1 0  9 1 0  9 1 0
9 1 0  9 1 0  9 1 0  9 1 0  9 1 0  9 1 0
9 1 0  9 1 0  9 1 0  9 1 0  9 1 0  9 1 0
9 1 0  9 1 0  9 1 0  9 1 0  9 1 0  9 1 0
9 1 0  9 1 0  9 1 0  9 1 0  9 1 0  9 1 0
9 1 0  9 1 0  9 1 0  9 1 0  9 1 0  9 1 0
9 1 0  9 1 0  9 1 0  9 1 0  9 1 0  9 1 0
9 1 0  9 1 0  9 1 0  9 1 0  9 1 0  9 1 0
9 1 0  9 1 0  9 1 0  9 1 0  9 1 0  9 1 0
9 1 0  9 1 0  9 1 0  9 1 0  9 1 0  9 1 0
9 1 0  9 1 0  9 1 0  9 1 0  9 1 0  9 1 0
9 1 0  9 1 0
9 1 0  9 1 0  9 1 0  9 1 0  9 1 0  9 1 0
9 1 0  9 1 0  9 1 0  9 1 0  9 1 0  9 1 0
9 1 0  9 1 0  9 1 0  9 1 0  9 1 0  9 1 0
9 1 0  9 1 0  9 1 0  9 1 0  9 1 0  9 1 0
9 1 0  9 1 0  9 1 0  9 1 0  9 1 0  9 1 0
9 1 0  9 1 0  9 1 0  9 1 0  9 1 0  9 1 0
9 1 0  9 1 0  9 1 0  9 1 0  9 1 0  9 1 0
9 1 0  9 1 0  9 1 0  9 1 0  9 1 0  9 1 0
9 1 0  9 1 0  9 1 0  9 1 0  9 1 0  9 1 0
9 1 0  9 1 0  9 1 0  9 1 0  9 1 0  9 1 0
9 1 0  9 1 0  9 1 0  9 1 0  9 1 0  9 1 0
9 1 0  9 1 0  9 1 0  9 1 0  9 1 0  9 1 0
9 1 0  9 1 0  9 1 0  9 1 0  9 1 0  9 1 0
9 1 0  9 1 0
9 1 0  9 1 0  9 1 0  9 1 0  9 1 0  9 1 0
9 1 0  9 1 0  9 1 0  9 1 0  9 1 0  9 1 0
9 1 0  9 1 0  9 1 0  9 1 0  9 1 0  9 1 0
9 1 0  9 1 0  9 1 0  9 1 0  9 1 0  9 1 0
9 1 0  9 1 0  9 1 0  9 1 0  9 1 0  9 1 0
9 1 0  9 1 0  9 1 0  9 1 0  9 1 0  9 1 0
9 1 0  9 1 0  9 1 0  9 1 0  9 1 0  9 1 0
9 1 0  9 1 0  9 1 0  9 1 0  9 1 0  9 1 0
9 1 0  9 1 0  9 1 0  9 1 0  9 1 0  9 1 0
9 1 0  9 1 0  9 1 0  9 1 0  9 1 0  9 1 0
9 1 0  9 1 0  9 1 0  9 1 0  9 1 0  9 1 0
9 1 0  9 1 0  9 1 0  9 1 0  9 1 0  9 1 0
9 1 0  9 1 0  9 1 0  9 1 0  9 1 0  9 1 0
9 1 0  9 1 0
9 1 0  9 1 0  9 1 0  9 1 0  9 1 0  9 1 0
9 1 0  9 1 0  9 1 0  9 1 0  9 1 0  9 1 0
9 1 0  9 1 0  9 1 0  9 1 0  9 1 0  9 1 0
9 1 0  9 1 0  9 1 0  9 1 0  9 1 0  9 1 0
9 1 0  9 1 0  9 1 0  9 1 0  9 1 0  9 1 0
9 1 0  9 1 0  9 1 0  9 1 0  9 1 0  9 1 0
9 1 0  9 1 0  9 1 0  9 1 0  9 1 0  9 1 0
9 1 0  9 1 0  9 1 0  9 1 0  9 1 0  9 1 0
9 1 0  9 1 0  9 1 0  9 1 0  9 1 0  9 1 0
9 1 0  9 1 0  9 1 0  9 1 0  9 1 0  9 1 0
9 1 0  9 1 0  9 1 0  9 1 0  9 1 0  9 1 0
9 1 0  9 1 0  9 1 0  9 1 0  9 1 0  9 1 0
9 1 0  9 1 0  9 1 0  9 1 0  9 1 0  9 1 0
9 1 0  9 1 0
9 1 0  9 1 0  9 1 0  9 1 0  9 1 0  9 1 0
9 1 0  9 1 0  9 1 0  9 1 0  9 1 0  9 1 0
9 1 0  9 1 0  9 1 0  9 1 0  9 1 0  9 1 0
9 1 0  9 1 0  9 1 0  9 1 0  9 1 0  9 1 0
9 1 0  9 1 0  9 1 0  9 1 0  9 1 0  9 1 0
9 1 0  9 1 0  9 1 0  9 1 0  9 1 0  9 1 0
9 1 0  9 1 0  9 1 0  9 1 0  9 1 0  9 1 0
9 1 0  9 1 0  9 1 0  9 1 0  9 1 0  9 1 0
9 1 0  9 1 0  9 1 0  9 1 0  9 1 0  9 1 0
9 1 0  9 1 0  9 1 0  9 1 0  9 1 0  9 1 0
9 1 0  9 1 0  9 1 0  9 1 0  9 1 0  9 1 0
9 1 0  9 1 0  9 1 0  9 1 0  9 1 0  9 1 0
9 1 0  9 1 0  9 1 0  9 1 0  9 1 0  9 1 0
9 1 0  9 1 0
9 1 0  9 1 0  9 1 0  9 1 0  9 1 0  9 1 0
9 1 0  9 1 0  9 1 0  9 1 0  9 1 0  9 1 0
9 1 0  9 1 0  9 1 0  9 1 0  9 1 0  9 1 0
9 1 0  9 1 0  9 1 0  9 1 0  9 1 0  9 1 0
9 1 0  9 1 0  9 1 0  9 1 0  9 1 0  9 1 0
9 1 0  9 1 0  9 1 0  9 1 0  9 1 0  9 1 0
9 1 0  9 1 0  9 1 0  9 1 0  9 1 0  9 1 0
9 1 0  9 1 0  9 1 0  9 1 0  9 1 0  9 1 0
9 1 0  9 1 0  9 1 0  9 1 0  9 1 0  9 1 0
9 1 0  9 1 0  9 1 0  9 1 0  9 1 0  9 1 0
9 1 0  9 1 0  9 1 0  9 1 0  9 1 0  9 1 0
9 1 0  9 1 0  9 1 0  9 1 0  9 1 0  9 1 0
9 1 0  9 1 0  9 1 0  9 1 0  9 1 0  9 1 0
9 1 0  9 1 0
9 1 0  9 1 0  9 1 0  9 1 0  9 1 0  9 1 0
9 1 0  9 1 0  9 1 0  9 1 0  9 1 0  9 1 0
9 1 0  9 1 0  9 1 0  9 1 0  9 1 0  9 1 0
9 1 0  9 1 0  9 1 0  9 1 0  9 1 0  9 1 0
9 1 0  9 1 0  9 1 0  9 1 0  9 1 0  9 1 0
9 1 0  9 1 0  9 1 0  9 1 0  9 1 0  9 1 0
9 1 0  9 1 0  9 1 0  9 1 0  9 1 0  9 1 0
9 1 0  9 1 0  9 1 0  9 1 0  9 1 0  9 1 0
9 1 0  9 1 0  9 1 0  9 1 0  9 1 0  9 1 0
9 1 0  9 1 0  9 1 0  9 1 0  9 1 0  9 1 0
9 1 0  9 1 0  9 1 0  9 1 0  9 1 0  9 1 0
9 1 0  9 1 0  9 1 0  9 1 0  9 1 0  9 1 0
9 1 0  9 1 0  9 1 0  9 1 0  9 1 0  9 1 0
9 1 0  9 1 0
9 1 0  9 1 0  9 1 0  9 1 0  9 1 0  9 1 0
9 1 0  9 1 0  9 1 0  9 1 0  9 1 0  9 1 0
9 1 0  9 1 0  9 1 0  9 1 0  9 1 0  9 1 0
9 1 0  9 1 0  9 1 0  9 1 0  9 1 0  9 1 0
9 1 0  9 1 0  9 1 0  9 1 0  9 1 0  9 1 0
9 1 0  9 1 0  9 1 0  9 1 0  9 1 0  9 1 0
9 1 0  9 1 0  9 1 0  9 1 0  9 1 0  9 1 0
9 1 0  9 1 0  9 1 0  9 1 0  9 1 0  9 1 0
9 1 0  9 1 0  9 1 0  9 1 0  9 1 0  9 1 0
9 1 0  9 1 0  9 1 0  9 1 0  9 1 0  9 1 0
9 1 0  9 1 0  9 1 0  9 1 0  9 1 0  9 1 0
9 1 0  9 1 0  9 1 0  9 1 0  9 1 0  9 1 0
9 1 0  9 1 0  9 1 0  9 1 0  9 1 0  9 1 0
9 1 0  9 1 0
9 1 0  9 1 0  9 1 0  9 1 0  9 1 0  9 1 0
9 1 0  9 1 0  9 1 0  9 1 0  9 1 0  9 1 0
9 1 0  9 1 0  9 1 0  9 1 0  9 1 0  9 1 0
9 1 0  9 1 0  9 1 0  9 1 0  9 1 0  9 1 0
9 1 0  9 1 0  9 1 0  9 1 0  9 1 0  9 1 0
9 1 0  9 1 0  9 1 0  9 1 0  9 1 0  9 1 0
9 1 0  9 1 0  9 1 0  9 1 0  9 1 0  9 1 0
9 1 0  9 1 0  9 1 0  9 1 0  9 1 0  9 1 0
9 1 0  9 1 0  9 1 0  9 1 0  9 1 0  9 1 0
9 1 0  9 1 0  9 1 0  9 1 0  9 1 0  9 1 0
9 1 0  9 1 0  9 1 0  9 1 0  9 1 0  9 1 0
9 1 0  9 1 0  9 1 0  9 1 0  9 1 0  9 1 0
9 1 0  9 1 0  9 1 0  9 1 0  9 1 0  9 1 0
9 1 0  9 1 0
9 1 0  9 1 0  9 1 0  9 1 0  9 1 0  9 1 0
9 1 0  9 1 0  9 1 0  9 1 0  9 1 0  9 1 0
9 1 0  9 1 0  9 1 0  9 1 0  9 1 0  9 1 0
9 1 0  9 1 0  9 1 0  9 1 0  9 1 0  9 1 0
9 1 0  9 1 0  9 1 0  9 1 0  9 1 0  9 1 0
9 1 0  9 1 0  9 1 0  9 1 0  9 1 0  9 1 0
9 1 0  9 1 0  9 1 0  9 1 0  9 1 0  9 1 0
9 1 0  9 1 0  9 1 0  9 1 0  9 1 0  9 1 0
9 1 0  9 1 0  9 1 0  9 1 0  9 1 0  9 1 0
9 1 0  9 1 0  9 1 0  9 1 0  9 1 0  9 1 0
9 1 0  9 1 0  9 1 0  9 1 0  9 1 0  9 1 0
9 1 0  9 1 0  9 1 0  9 1 0  9 1 0  9 1 0
9 1 0  9 1 0  9 1 0  9 1 0  9 1 0  9 1 0
9 1 0  9 1 0
